PathFileType	4	(X/Y/Z)	C:\Users\Basilio\Documents\Thesis Gigler\squatting_fais\c3dfiles\076\SLS_front_pre2\markers_experimental.trc
DataRate	CameraRate	NumFrames	NumMarkers	Units	OrigDataRate	OrigDataStartFrame	OrigNumFrames
200.000000	200.000000	4	61	mm	200.000000	0	1595
Frame#	Time	FHD			LBHD			RBHD			C7			T10			CLAV			LSHO			LUUPA			LMUPA			LDUPA			LLEP			LMEP			LRAD			LUL			LRFIN			RSHO			RUPA1			RMUPA			RDUPA			RLEP			RMEP			RRAD			RUL			RUFIN			LASI			RASI			USACR			LSACR			RSACR			LTHI1			LTHI2			LTHI3			LTHI4			LLFC			LMFC			LTIB1			LTIB2			LTIB3			LTIB4			LLMAL			LMMAL			LHEE			LMT1			LMT2			LMT5			RTHI			RTHI2			RTHI3			RTHI4			RLFC			RMFC			RTIB1			RTIB2			RTIB3			RTIB4			RLMAL			RMMAL			RHEE			RMT1			RMT2			RMT5			
		X1	Y1	Z1	X2	Y2	Z2	X3	Y3	Z3	X4	Y4	Z4	X5	Y5	Z5	X6	Y6	Z6	X7	Y7	Z7	X8	Y8	Z8	X9	Y9	Z9	X10	Y10	Z10	X11	Y11	Z11	X12	Y12	Z12	X13	Y13	Z13	X14	Y14	Z14	X15	Y15	Z15	X16	Y16	Z16	X17	Y17	Z17	X18	Y18	Z18	X19	Y19	Z19	X20	Y20	Z20	X21	Y21	Z21	X22	Y22	Z22	X23	Y23	Z23	X24	Y24	Z24	X25	Y25	Z25	X26	Y26	Z26	X27	Y27	Z27	X28	Y28	Z28	X29	Y29	Z29	X30	Y30	Z30	X31	Y31	Z31	X32	Y32	Z32	X33	Y33	Z33	X34	Y34	Z34	X35	Y35	Z35	X36	Y36	Z36	X37	Y37	Z37	X38	Y38	Z38	X39	Y39	Z39	X40	Y40	Z40	X41	Y41	Z41	X42	Y42	Z42	X43	Y43	Z43	X44	Y44	Z44	X45	Y45	Z45	X46	Y46	Z46	X47	Y47	Z47	X48	Y48	Z48	X49	Y49	Z49	X50	Y50	Z50	X51	Y51	Z51	X52	Y52	Z52	X53	Y53	Z53	X54	Y54	Z54	X55	Y55	Z55	X56	Y56	Z56	X57	Y57	Z57	X58	Y58	Z58	X59	Y59	Z59	X60	Y60	Z60	X61	Y61	Z61	

1	0	-159.483627319336	1608.162231445313	-807.826110839844	-247.4548492431641	1577.9091796875	-965.9111938476565	-307.4236450195313	1579.50390625	-825.427185058594	-363.9150085449219	1459.939086914063	-901.1441040039065	-390.0277404785157	1132.876708984375	-904.0408325195315	-233.8344879150391	1375.969970703125	-888.425720214844	-302.6959838867188	1412.704711914063	-1063.376831054688	-348.6651916503907	1299.031372070313	-1204.572387695313	-333.3821105957032	1251.259887695313	-1202.769653320313	-366.7366027832032	1253.370239257813	-1254.293701171875	-387.3416137695314	1211.268920898438	-1288.287353515625	-458.3110656738282	1188.419067382813	-1239.356689453125	-319.5603332519532	1033.39990234375	-1142.900512695313	-299.2280883789063	999.6968994140627	-1194.493408203125	-276.7158203125001	999.1218872070315	-1098.447998046875	-326.6441650390626	1407.946533203125	-731.1241455078126	-445.3591308593751	1301.107543945313	-628.9179687500001	-422.5174255371095	1263.903930664063	-603.5380859375001	-481.0545654296876	1252.4140625	-591.7469482421876	-494.0647888183595	1187.812744140625	-557.1170654296876	-523.9241333007814	1156.451293945313	-635.9044799804689	-335.7643737792969	1039.592407226563	-663.5438232421876	-333.9289550781251	1010.794555664063	-603.0689086914064	-275.5560302734376	1002.610107421875	-683.2315063476564	-223.6532745361329	949.5549316406252	-1004.699096679688	-226.6338500976563	953.3896484375002	-787.8105468750002	-390.2377014160157	1025.349365234375	-898.976501464844	-408.977020263672	997.2847290039065	-925.3839111328127	-398.3208312988282	996.4268188476565	-870.3186035156252	-317.1127319335938	801.4609985351565	-1072.618286132813	-298.1256713867188	718.9408569335939	-1075.8046875	-250.1819763183594	715.1413574218751	-1062.619018554688	-334.0247192382813	670.2066040039064	-1066.51611328125	-352.1638488769532	510.5248413085939	-1048.114990234375	-314.7843627929688	493.1173095703126	-936.1426391601565	-319.4374694824219	362.7451782226563	-996.4787597656252	-346.3377380371094	316.3542480468751	-1067.05810546875	-316.2943725585938	316.2886962890626	-1032.374145507813	-326.8829650878907	236.0534667968751	-1006.738708496094	-385.027801513672	112.8789901733399	-1068.808837890625	-355.2943115234376	120.6672058105469	-989.4065551757815	-442.5118408203126	97.0234069824219	-1024.366943359375	-240.6761474609376	54.4642906188965	-1005.749694824219	-234.6324157714844	50.01176071166994	-1044.17333984375	-257.3321838378907	42.75680923461915	-1094.086059570313	-342.5276794433594	710.5458374023439	-729.1029663085939	-311.4003906250001	651.3967895507814	-724.7807617187501	-276.9797058105469	651.1352539062501	-728.1963500976564	-343.6062622070313	576.9735107421876	-740.9077148437501	-353.0685119628907	515.7088012695314	-746.6452636718751	-309.8431396484376	505.7427978515626	-858.347595214844	-315.8337097167969	383.2978515625001	-758.1629638671876	-387.8387756347657	303.2911987304688	-742.6531372070314	-340.8643493652344	300.1571350097657	-744.6659545898439	-322.0293579101563	253.8553009033204	-774.7205810546877	-384.0472106933595	114.5393524169922	-750.6090698242189	-353.2641906738282	125.8455123901367	-829.1430664062502	-437.1663818359376	101.3012466430664	-796.5533447265627	-239.1713104248047	52.70196533203126	-810.1184692382815	-234.9679107666016	51.20776367187501	-764.4892578125001	-266.1626892089844	35.34080123901368	-711.6524047851564	
2	0.005	-159.3699188232422	1608.295166015625	-807.8425903320315	-247.3717956542969	1577.88720703125	-965.8283691406252	-307.3439636230469	1579.536743164063	-825.238708496094	-363.7301025390626	1459.970703125	-900.802185058594	-389.9833374023439	1132.92822265625	-903.8774414062502	-233.6825408935547	1375.909301757813	-888.162292480469	-302.6651611328126	1412.867065429688	-1062.969970703125	-348.9496459960938	1299.930297851563	-1204.40283203125	-333.8585205078126	1252.03271484375	-1202.786865234375	-367.1656799316407	1254.4345703125	-1254.267211914063	-388.1960449218751	1212.602783203125	-1288.44677734375	-459.2547912597657	1189.86328125	-1239.3876953125	-321.9491882324219	1035.284545898438	-1141.973266601563	-300.4045410156251	1001.239624023438	-1193.246704101563	-277.7941894531251	1001.798767089844	-1097.440307617188	-326.3193969726563	1408.175170898438	-730.9227294921876	-445.0885314941407	1302.422485351563	-628.1336669921876	-422.4820251464845	1265.176391601563	-602.7568359375001	-481.0441284179689	1254.0654296875	-590.7576904296876	-493.971649169922	1190.093627929688	-555.9357299804689	-524.8544311523439	1158.353881835938	-634.6240844726564	-336.9715576171876	1041.985961914063	-664.2924194335939	-334.5729064941407	1012.9072265625	-603.9119873046876	-276.9866638183594	1005.619567871094	-684.6798706054689	-223.5862426757813	949.5638427734377	-1004.614868164063	-226.4681549072266	953.3439941406252	-787.6689453125002	-390.212860107422	1025.3525390625	-898.8118896484377	-408.8808898925782	997.3288574218752	-925.219665527344	-398.2444152832032	996.3789672851565	-870.2131958007815	-317.1069641113282	801.472839355469	-1072.5185546875	-298.1221008300782	718.8989257812501	-1075.724853515625	-250.0937957763672	715.1878051757814	-1062.546264648438	-334.0082397460938	670.1908569335939	-1066.4404296875	-352.1987915039063	510.5284729003907	-1048.03515625	-314.6834411621094	493.1173095703126	-936.075622558594	-319.3869934082032	362.7224426269532	-996.401306152344	-346.3230895996094	316.3667907714844	-1067.032592773438	-316.2974853515626	316.2675170898438	-1032.361938476563	-326.8458251953126	236.0613861083985	-1006.726318359375	-385.0354309082032	112.8990631103516	-1068.817016601563	-355.3157043457032	120.6633758544922	-989.4050903320315	-442.5114746093751	97.03159332275393	-1024.37646484375	-240.6834564208985	54.42666244506837	-1005.746765136719	-234.6162261962891	50.0342140197754	-1044.152587890625	-258.3446044921876	43.30046463012696	-1094.520629882813	-342.4183654785157	710.5170898437501	-729.0311279296876	-311.1985473632813	651.3252563476564	-724.6897583007814	-276.8302917480469	651.1264038085939	-728.1002197265626	-343.4961242675782	576.9305419921876	-740.8395996093751	-352.9493408203126	515.6768188476564	-746.6106567382814	-308.9284057617188	505.4607849121095	-858.1179809570315	-315.7955322265626	383.2264709472657	-758.1432495117189	-387.7968750000001	303.2705078125001	-742.5883178710939	-340.8488464355469	300.0982055664063	-744.6843261718751	-322.0225219726563	253.8182830810547	-774.704772949219	-384.030487060547	114.5415954589844	-750.5935058593751	-353.2670288085938	125.8675994873047	-829.141540527344	-437.1997070312501	101.2784805297852	-796.4732666015627	-239.1795654296876	52.70686340332033	-810.1234130859377	-235.0875549316407	51.29406738281251	-764.5031738281251	-266.3228759765626	35.30198287963868	-711.7788085937501	
3	0.01	-159.242431640625	1608.363525390625	-807.865173339844	-247.4021453857422	1577.8857421875	-965.7661132812502	-307.2038574218751	1579.57373046875	-825.0484619140627	-363.5441589355469	1459.99462890625	-900.470886230469	-389.9443969726564	1132.964599609375	-903.650573730469	-233.5330810546876	1375.843017578125	-887.9317626953127	-302.6029968261719	1413.007934570313	-1062.560424804688	-349.2507019042969	1300.7890625	-1204.327270507813	-334.2698669433594	1252.836791992188	-1202.8515625	-367.7693786621094	1255.503540039063	-1254.315185546875	-388.9311828613282	1213.701171875	-1288.4560546875	-460.1141052246095	1191.356567382813	-1239.53759765625	-323.1427307128907	1037.084716796875	-1140.906127929688	-301.5372314453126	1002.93310546875	-1192.060668945313	-279.0773620605469	1004.481140136719	-1096.19091796875	-325.9842529296876	1408.394287109375	-730.7101440429689	-444.8291625976564	1303.78466796875	-627.4118041992189	-422.4388732910157	1266.3427734375	-601.9715576171876	-481.1790771484376	1255.79443359375	-589.8227539062501	-494.6209716796876	1191.4951171875	-554.9660034179689	-525.7329101562501	1160.356567382813	-633.5017089843751	-338.0769958496094	1044.345092773438	-664.9286499023439	-335.1512756347657	1015.057861328125	-604.7766723632814	-278.3213806152344	1008.687194824219	-686.0490722656251	-224.241928100586	949.5729980468752	-1004.450012207031	-226.3448486328126	953.3190917968752	-787.525573730469	-390.1267700195314	1025.326416015625	-898.593933105469	-397.8858032226564	996.9011840820315	-926.1929321289065	-398.146697998047	996.346130371094	-870.0318603515627	-317.0520935058594	801.4168701171877	-1072.454833984375	-298.0818176269532	718.9052734375001	-1075.677368164063	-250.0472259521485	715.1806030273439	-1062.482177734375	-333.9715270996094	670.2172241210939	-1066.336791992188	-352.0757141113282	510.5476684570314	-1047.951049804688	-314.6496887207032	493.1060485839845	-935.9399414062502	-319.3809814453126	362.7436828613282	-996.3459472656252	-346.2641296386719	316.3906250000001	-1066.974365234375	-316.2966308593751	316.2835388183594	-1032.3427734375	-326.8066101074219	236.0754852294922	-1006.658142089844	-385.0318298339845	112.8797225952149	-1068.8310546875	-355.2664184570313	120.6612548828125	-989.389831542969	-442.4975585937501	97.03488922119143	-1024.34130859375	-240.6690826416016	54.44818496704103	-1005.748962402344	-234.6082458496094	50.02896881103517	-1044.129028320313	-257.2982177734376	42.7811393737793	-1094.118896484375	-342.3002929687501	710.4707641601564	-728.9287109375001	-311.0903930664063	651.2916259765626	-724.6296997070314	-276.7353515625001	651.0859985351564	-728.0411987304689	-343.3759460449219	576.9395751953126	-740.7827758789064	-352.8550415039063	515.6571044921876	-746.5360717773439	-308.8334960937501	505.4622192382814	-858.0762329101565	-315.7555541992188	383.2101135253907	-758.1361083984376	-387.7548828125001	303.2606506347657	-742.5878295898439	-340.7729187011719	300.0921630859376	-744.6601562500001	-321.9553833007813	253.7877655029297	-774.7053833007815	-384.0390014648439	114.5308074951172	-750.5958251953126	-353.2678222656251	125.8087005615235	-829.123718261719	-437.2111206054689	101.2692489624024	-796.5437011718752	-239.1840515136719	52.6613121032715	-810.1688232421877	-234.9725646972657	51.19955062866212	-764.5082397460939	-266.1361694335938	35.33580398559571	-711.6699218750001	
4	0.015	-159.08544921875	1608.462646484375	-807.9021606445315	-247.4031524658204	1577.910766601563	-965.6834106445315	-307.1300048828126	1579.633911132813	-824.946472167969	-363.3249511718751	1460.0341796875	-900.1535644531252	-389.9042968750001	1132.996948242188	-903.4587402343752	-233.3736724853516	1375.781372070313	-887.7427978515627	-302.5947265625001	1413.146606445313	-1062.225341796875	-349.5268249511719	1301.640258789063	-1204.223266601563	-334.7781982421876	1253.625122070313	-1202.8603515625	-368.3158569335938	1256.60595703125	-1254.350463867188	-389.7220153808595	1214.864013671875	-1288.535522460938	-460.9812622070314	1192.82177734375	-1239.60400390625	-324.0523071289063	1039.05126953125	-1139.969970703125	-303.0132751464844	1004.64892578125	-1189.761840820313	-279.9667968750001	1007.140808105469	-1095.047241210938	-325.6611938476563	1408.638549804688	-730.4619140625001	-444.6277770996095	1305.100341796875	-626.7774047851564	-422.4432983398439	1267.664306640625	-601.2789916992189	-481.1083374023439	1257.398315429688	-588.8638916015626	-494.5544433593751	1193.676513671875	-553.8661499023439	-526.5626220703126	1162.44921875	-632.3029174804689	-339.2775878906251	1046.777221679688	-665.7509155273439	-335.8161621093751	1017.075927734375	-605.8363037109376	-279.6083374023438	1011.772094726563	-687.4074096679689	-224.243637084961	949.8567504882815	-1004.281616210938	-226.2083129882813	953.3228149414065	-787.4218750000002	-390.037078857422	1025.326416015625	-898.4310302734377	-397.8197021484376	996.8920898437502	-926.002624511719	-398.0433959960939	996.3349609375002	-869.8267822265627	-317.0163574218751	801.431823730469	-1072.348999023438	-298.0216064453126	718.8869018554689	-1075.558959960938	-250.0601806640626	715.1575927734376	-1062.41064453125	-333.9289550781251	670.1701049804689	-1066.294067382813	-352.0834350585938	510.5419921875001	-1047.854370117188	-314.6291809082032	493.0930480957032	-935.9060668945315	-319.3941955566407	362.7287292480469	-996.3192138671877	-346.3095703125001	316.3446350097657	-1066.884521484375	-316.2388916015626	316.3228454589844	-1032.305053710938	-327.3352661132813	236.4141998291016	-1006.932312011719	-385.0024719238282	112.9434661865235	-1068.780151367188	-355.2576599121094	120.6798477172852	-989.3841552734377	-442.5194091796876	97.00282287597659	-1024.32373046875	-240.6690826416016	54.44818496704103	-1005.748962402344	-234.6233978271485	50.021053314209	-1044.116821289063	-257.3669128417969	42.79450988769532	-1094.105102539063	-342.1758422851563	710.4547729492189	-728.8554077148439	-310.9447326660157	651.2797851562501	-724.5612182617189	-276.5921325683594	651.0505371093751	-727.9261474609376	-343.2395019531251	576.9042358398439	-740.7088012695314	-352.8015441894532	515.6351318359376	-746.4858398437501	-308.8144531250001	505.4420471191407	-858.037536621094	-315.6723327636719	383.1565551757813	-758.0851440429689	-387.721405029297	303.2345581054688	-742.5831298828126	-340.7072448730469	300.1035461425782	-744.5892333984376	-321.9373474121094	253.7673034667969	-774.6527099609377	-384.0460510253907	114.522331237793	-750.6065673828126	-353.2472229003907	125.8557052612305	-829.1697998046877	-437.2008361816407	101.2775650024414	-796.5270996093752	-239.1895294189454	52.70085525512697	-810.1748046875002	-235.0147247314454	51.19903945922853	-764.5456542968751	-266.1444702148438	35.33276748657227	-711.6627197265626	
